<?xml version="1.0" standalone="no"?>
<!DOCTYPE svg PUBLIC "-//W3C//DTD SVG 20010904//EN"
 "http://www.w3.org/TR/2001/REC-SVG-20010904/DTD/svg10.dtd">
<svg version="1.0" xmlns="http://www.w3.org/2000/svg"
 width="512.000000pt" height="512.000000pt" viewBox="0 0 512.000000 512.000000"
 preserveAspectRatio="xMidYMid meet">

<g transform="translate(0.000000,512.000000) scale(0.100000,-0.100000)"
fill="#000000" stroke="none">
<path d="M589 5109 c-304 -45 -539 -286 -580 -597 -6 -50 -9 -742 -7 -2007 3
-1821 5 -1933 21 -1990 74 -247 252 -423 497 -492 62 -17 156 -18 2040 -18
1878 0 1978 1 2040 18 247 69 427 249 497 497 17 62 18 156 18 2040 0 1884 -1
1978 -18 2040 -69 245 -245 423 -492 497 -57 16 -167 18 -2010 19 -1072 1
-1975 -2 -2006 -7z m2283 -1211 c76 -35 142 -104 180 -185 27 -57 32 -81 36
-170 l5 -103 256 0 c293 0 323 -7 354 -73 21 -43 21 -58 3 -102 -20 -46 -69
-75 -128 -75 l-48 0 -2 -887 -3 -888 -24 -45 c-32 -61 -86 -116 -146 -148
l-50 -27 -745 0 -745 0 -50 27 c-60 32 -114 87 -146 148 l-24 45 -3 888 -2
887 -48 0 c-122 0 -184 126 -102 208 16 16 43 32 61 36 17 3 143 6 279 6 l247
0 5 103 c4 84 9 113 31 161 36 77 77 127 137 166 87 56 111 60 375 57 237 -2
241 -2 297 -29z"/>
<path d="M2360 3677 c-57 -20 -80 -66 -80 -158 l0 -79 280 0 280 0 0 79 c0 65
-4 84 -23 112 -33 50 -69 58 -257 58 -102 0 -178 -5 -200 -12z"/>
<path d="M1832 2335 l3 -854 23 -23 23 -23 679 0 679 0 23 23 23 23 3 854 2
855 -730 0 -730 0 2 -855z m518 570 c61 -32 60 -21 60 -621 l0 -546 -34 -34
c-28 -28 -42 -34 -75 -34 -23 0 -55 7 -71 15 -61 32 -60 22 -60 614 l0 539 27
32 c42 51 98 63 153 35z m567 -29 l33 -36 0 -540 c0 -593 1 -583 -60 -615 -16
-8 -48 -15 -71 -15 -33 0 -47 6 -75 34 l-34 34 0 546 c0 597 -1 588 58 621 17
10 43 14 72 11 35 -3 51 -11 77 -40z"/>
</g>
</svg>
