<?xml version="1.0" standalone="no"?>
<!DOCTYPE svg PUBLIC "-//W3C//DTD SVG 20010904//EN"
 "http://www.w3.org/TR/2001/REC-SVG-20010904/DTD/svg10.dtd">
<svg version="1.0" xmlns="http://www.w3.org/2000/svg"
 width="512.000000pt" height="512.000000pt" viewBox="0 0 512.000000 512.000000"
 preserveAspectRatio="xMidYMid meet">

<g transform="translate(0.000000,512.000000) scale(0.100000,-0.100000)"
fill="#756DF4" stroke="none">
<path d="M893 5105 c-102 -31 -176 -96 -222 -195 l-26 -55 0 -2295 0 -2295 26
-56 c37 -79 90 -133 167 -171 l67 -33 1655 0 1655 0 67 33 c77 38 130 92 167
171 l26 56 3 1488 c1 818 0 1487 -3 1487 -3 0 -20 -8 -38 -17 -29 -17 -87 -18
-717 -21 -481 -2 -703 0 -745 8 -144 27 -286 131 -352 256 -64 120 -64 121
-61 887 3 637 4 695 21 724 9 18 17 34 17 38 0 3 -375 5 -832 4 -660 0 -842
-3 -875 -14z m1755 -2012 c14 -10 35 -32 46 -47 20 -27 21 -40 24 -543 l3
-516 122 120 c131 130 155 143 234 128 49 -9 109 -69 118 -118 17 -88 16 -90
-283 -389 -239 -239 -282 -278 -315 -283 -88 -17 -90 -16 -389 283 -299 299
-300 300 -283 389 9 49 69 109 118 118 79 15 103 2 235 -128 l122 -121 0 501
c0 331 4 511 11 530 14 37 47 72 84 89 40 19 119 12 153 -13z m798 -1999 c53
-39 69 -71 69 -134 0 -63 -16 -95 -69 -134 -27 -21 -37 -21 -864 -24 -569 -2
-849 0 -874 8 -101 29 -140 168 -71 251 52 61 10 59 935 56 838 -2 847 -2 874
-23z"/>
<path d="M2880 4317 c0 -520 3 -654 13 -680 22 -51 88 -105 139 -112 24 -3
323 -5 666 -3 l622 3 -720 720 -720 720 0 -648z"/>
</g>
</svg>
