<?xml version="1.0" standalone="no"?>
<!DOCTYPE svg PUBLIC "-//W3C//DTD SVG 20010904//EN"
 "http://www.w3.org/TR/2001/REC-SVG-20010904/DTD/svg10.dtd">
<svg version="1.0" xmlns="http://www.w3.org/2000/svg"
 width="512.000000pt" height="512.000000pt" viewBox="0 0 512.000000 512.000000"
 preserveAspectRatio="xMidYMid meet">

<g transform="translate(0.000000,512.000000) scale(0.100000,-0.100000)"
fill="#756DF4" stroke="none">
<path d="M3598 5099 c-68 -35 -78 -71 -78 -279 0 -210 10 -244 80 -280 36 -18
58 -20 267 -20 l228 0 -542 -542 c-389 -390 -547 -554 -558 -582 -11 -26 -14
-51 -10 -80 6 -36 24 -58 149 -182 124 -125 146 -143 182 -149 29 -4 54 -1 80
10 28 11 192 169 582 558 l542 542 0 -228 c0 -209 2 -231 20 -267 36 -70 70
-80 280 -80 210 0 244 10 280 80 19 38 20 57 20 720 0 663 -1 682 -20 720 -13
26 -34 47 -60 60 -38 19 -57 20 -722 20 -660 -1 -684 -2 -720 -21z"/>
<path d="M898 4499 c-23 -12 -46 -35 -58 -59 -20 -39 -20 -56 -20 -1770 0
-1715 0 -1731 20 -1770 13 -26 34 -47 60 -60 39 -20 55 -20 1770 -20 1715 0
1731 0 1770 20 26 13 47 34 60 60 20 39 20 56 20 1193 l0 1154 -52 24 c-32 14
-81 52 -122 92 l-69 69 -341 -340 c-374 -372 -384 -380 -523 -403 -86 -14
-180 0 -262 38 -84 39 -378 331 -420 417 -42 85 -57 184 -42 272 24 137 33
148 403 520 l340 342 -69 68 c-41 41 -79 90 -93 122 l-25 52 -1155 0 c-1130
-1 -1156 -1 -1192 -21z"/>
<path d="M78 3879 c-23 -12 -46 -35 -58 -59 -20 -39 -20 -56 -20 -1870 0
-1815 0 -1831 20 -1870 13 -26 34 -47 60 -60 39 -20 55 -20 1870 -20 1815 0
1831 0 1870 20 72 37 80 67 80 300 l0 200 -1485 0 c-1068 0 -1499 3 -1537 11
-171 37 -310 176 -347 347 -8 38 -11 469 -11 1537 l0 1485 -202 0 c-182 -1
-207 -3 -240 -21z"/>
</g>
</svg>
